<svg xmlns="http://www.w3.org/2000/svg" width="51" height="51" fill="none" viewBox="0 0 51 51">
  <g clip-path="url(#clip0_251_442)">
    <path fill="#1A2B63" d="M50.972 25.486a25.488 25.488 0 01-1.214 7.794 25.127 25.127 0 01-1.84 4.314 25.076 25.076 0 01-2.12 3.287c-4.653 6.13-12.02 10.091-20.312 10.091a25.405 25.405 0 01-16.76-6.284 25.627 25.627 0 01-3.554-3.807v-.003a24.44 24.44 0 01-1.078-1.534A25.365 25.365 0 010 25.486C0 11.41 11.41 0 25.486 0s25.486 11.41 25.486 25.486z"/>
    <path fill="#36B990" d="M.261 14.296a52.074 52.074 0 0012.063 10.172 1.056 1.056 0 001.462-.37l3.482-5.972c.288-.494.13-1.129-.358-1.429a43.055 43.055 0 01-9.764-8.234 1.055 1.055 0 00-1.47-.11l-5.298 4.44a1.055 1.055 0 00-.117 1.503z"/>
    <path fill="#77D9A5" d="M2.209 12.53l2.885-2.418a1.655 1.655 0 002.382.16 44.075 44.075 0 007.595 6.404 1.654 1.654 0 00.56 2.321l-1.895 3.252a1.655 1.655 0 00-2.232.546 51.166 51.166 0 01-9.456-7.973 1.654 1.654 0 00.161-2.292zM.94 13.592l.535-.447a.697.697 0 01-.073.97 54.274 54.274 0 01-.461-.523zM5.829 9.497l.533-.448c.154.175.308.349.464.52a.697.697 0 01-.997-.072zM15.874 17.199c.196.124.393.247.591.368l-.351.602a.697.697 0 01-.24-.97zM12.37 23.23a.697.697 0 01.883-.153l-.35.602a48.74 48.74 0 01-.593-.367.74.74 0 01.06-.083z"/>
    <path fill="#36B990" d="M6.617 14.562c-1.146 1.36-1.097 3.286.11 4.304 1.208 1.018 3.115.741 4.261-.618 1.146-1.36 1.097-3.286-.11-4.304-1.208-1.018-3.115-.742-4.261.618z"/>
    <path fill="#77D9A5" d="M7.178 18.056c-.575-.519-.801-1.232-.535-1.548.142-.167.498-.29.685-.131.207.174.13.607.44.979l.674-.8c-.308-.555-.662-1.216-.13-1.847.53-.627 1.246-.537 1.832-.17l.116-.138c.059-.07.191-.067.3.025.093.079.133.222.075.29l-.104.125c.298.267.808.833.521 1.173-.112.133-.43.33-.647.147-.162-.138-.123-.375-.423-.67l-.607.72c.307.547.635 1.22.073 1.886-.516.611-1.222.649-1.878.256l-.121.143c-.058.069-.206.054-.3-.025-.109-.092-.134-.222-.075-.292l.104-.123zm1.97-2.237l.496-.587c-.26-.143-.449-.108-.549.01-.12.143-.067.34.054.577zm-.492 1.145l-.558.661c.201.102.414.121.563-.057.138-.163.102-.37-.005-.604z"/>
    <path fill="#36B990" d="M13.325 19.357a.89.89 0 11-1.779 0 .89.89 0 011.78 0zM6.169 13.323a.89.89 0 11-1.78 0 .89.89 0 011.78 0zM18.24 16.308A52.073 52.073 0 0031.39 7.59a1.055 1.055 0 00.057-1.507l-4.754-5.02a1.054 1.054 0 00-1.472-.058 43.038 43.038 0 01-10.646 7.058 1.055 1.055 0 00-.519 1.379l2.773 6.333c.237.542.873.783 1.41.534z"/>
    <path fill="#77D9A5" d="M17.092 13.942l-1.51-3.448a1.655 1.655 0 00.824-2.24 44.002 44.002 0 008.279-5.49 1.655 1.655 0 002.385.113l2.588 2.734a1.655 1.655 0 00-.103 2.295 51.126 51.126 0 01-10.31 6.835 1.655 1.655 0 00-2.154-.799zM17.755 15.458l-.28-.638a.696.696 0 01.911.342c-.21.1-.42.198-.631.296zM15.197 9.616l-.279-.638c.21-.098.42-.197.63-.299a.697.697 0 01-.35.937zM25.411 2.14c.175-.153.348-.308.52-.463l.48.505a.697.697 0 01-1-.042zM30.215 7.197a.696.696 0 01.102-.89l.48.505c-.173.156-.345.312-.52.466a.74.74 0 01-.062-.08z"/>
    <path fill="#36B990" d="M20.278 10.283c.983 1.482 2.846 1.976 4.163 1.103 1.316-.872 1.586-2.78.604-4.263-.983-1.481-2.846-1.976-4.162-1.103-1.317.873-1.587 2.781-.605 4.263z"/>
    <path fill="#77D9A5" d="M23.791 10.726c-.66.406-1.408.422-1.636.079-.121-.183-.138-.56.066-.695.226-.15.62.047 1.064-.148l-.578-.87c-.62.14-1.354.293-1.81-.395-.453-.684-.164-1.347.352-1.805l-.1-.15c-.05-.076-.01-.203.108-.281.102-.068.25-.066.3.01l.09.134c.34-.21 1.027-.542 1.273-.17.096.144.195.504-.041.661-.178.118-.394.014-.761.218l.52.785c.61-.141 1.348-.266 1.83.46.442.666.279 1.355-.283 1.875l.104.156c.05.075-.006.213-.108.28-.119.079-.25.066-.3-.01l-.09-.134zm-1.594-2.52l-.424-.64c-.21.209-.23.4-.144.53.103.155.307.16.568.11zm.962.795l.477.721c.154-.164.232-.363.103-.556-.117-.178-.326-.202-.58-.165z"/>
    <path fill="#36B990" d="M27.406 6.046a.89.89 0 11-1.78 0 .89.89 0 011.78 0zM19.605 11.219a.89.89 0 11-1.78 0 .89.89 0 011.78 0zM32.397 31.346a52.073 52.073 0 0014.888-5.226c.522-.278.714-.931.425-1.448l-3.377-6.032c-.28-.5-.907-.685-1.413-.418a43.04 43.04 0 01-12.052 4.23 1.055 1.055 0 00-.841 1.21l1.134 6.82c.097.583.655.973 1.236.864z"/>
    <path fill="#77D9A5" d="M31.865 28.77l-.618-3.713a1.655 1.655 0 001.348-1.97 44.101 44.101 0 009.374-3.29 1.654 1.654 0 002.284.694l1.838 3.286a1.655 1.655 0 00-.662 2.2 51.127 51.127 0 01-11.672 4.096 1.655 1.655 0 00-1.892-1.303zM32.136 30.402l-.114-.687a.696.696 0 01.798.555c-.228.046-.456.09-.684.132zM31.09 24.112l-.114-.687c.228-.044.456-.088.683-.135a.696.696 0 01-.569.822zM42.826 19.37c.207-.105.413-.213.618-.322l.34.608a.694.694 0 01-.958-.286zM46.242 25.45a.696.696 0 01.317-.838l.34.608c-.204.11-.41.218-.616.325a.683.683 0 01-.04-.094z"/>
    <path fill="#36B990" d="M35.852 26.004c.589 1.678 2.274 2.614 3.764 2.09 1.49-.522 2.22-2.306 1.632-3.984-.59-1.677-2.275-2.613-3.765-2.09-1.49.523-2.22 2.306-1.631 3.984z"/>
    <path fill="#77D9A5" d="M39.15 27.297c-.74.231-1.469.064-1.606-.326-.073-.207.003-.576.235-.657.255-.09.588.197 1.067.118l-.347-.986c-.635-.017-1.384-.048-1.658-.827-.27-.773.171-1.346.784-1.664l-.06-.17c-.03-.085.04-.199.174-.246.116-.04.26-.002.29.084l.053.152c.382-.12 1.128-.273 1.275.147.058.164.066.538-.202.632-.2.07-.385-.084-.791.024l.312.89c.626.012 1.372.071 1.661.893.265.755-.062 1.383-.734 1.749l.062.176c.03.085-.058.205-.173.246-.134.047-.26.002-.29-.083l-.053-.152zm-.927-2.835l-.255-.724c-.254.15-.32.331-.27.478.062.176.26.23.525.246zm.736 1.007l.287.816c.19-.122.313-.295.236-.514-.07-.201-.268-.276-.523-.302z"/>
    <path fill="#36B990" d="M43.829 23.428a.89.89 0 11-1.78 0 .89.89 0 011.78 0zM34.996 26.528a.89.89 0 11-1.779 0 .89.89 0 011.78 0zM50.053 32.29a25.119 25.119 0 01-2.135 5.303 25.12 25.12 0 01-1.852 2.929 52.086 52.086 0 01-9.814-8.717 1.055 1.055 0 01.117-1.503l5.3-4.441a1.054 1.054 0 011.468.111 43.007 43.007 0 006.916 6.318z"/>
    <path fill="#77D9A5" d="M49.758 33.28a25.098 25.098 0 01-1.84 4.314 25.095 25.095 0 01-1.29 2.129 51.004 51.004 0 01-8.588-7.393 1.655 1.655 0 00.161-2.292l2.886-2.417a1.654 1.654 0 002.381.16 44.056 44.056 0 006.29 5.5zM36.933 31.101l.534-.447a.696.696 0 01-.072.97 47.303 47.303 0 01-.462-.523zM41.82 27.006l.534-.448c.154.175.308.348.464.52a.697.697 0 01-.998-.072z"/>
    <path fill="#36B990" d="M42.608 32.071c-1.146 1.36-1.096 3.286.11 4.304 1.208 1.018 3.115.742 4.262-.618 1.146-1.36 1.096-3.286-.111-4.304-1.208-1.018-3.115-.741-4.261.618z"/>
    <path fill="#77D9A5" d="M46.523 32.349l.104-.123c.058-.07.019-.212-.075-.291-.11-.092-.241-.094-.3-.025l-.116.138c-.586-.367-1.303-.458-1.832.17-.532.63-.178 1.292.13 1.847l-.674.799c-.31-.372-.233-.804-.44-.979-.187-.158-.543-.036-.684.132-.267.315-.04 1.029.534 1.548l-.104.123c-.058.07-.033.2.075.29.094.08.241.096.3.026l.12-.143c.657.393 1.363.356 1.88-.255.56-.666.233-1.34-.075-1.886l.608-.72c.3.295.26.532.423.67.218.183.535-.014.647-.147.287-.341-.224-.906-.52-1.175zm-1.87 2.728c-.15.177-.361.16-.563.058l.557-.662c.108.234.144.44.007.604zm.488-1.75c-.121-.237-.174-.433-.054-.577.1-.119.29-.153.549-.01l-.495.587z"/>
    <path fill="#36B990" d="M48.7 36.02c-.243.534-.504 1.06-.782 1.573a.89.89 0 01-.17-1.301.89.89 0 01.952-.272zM42.16 30.831a.89.89 0 11-1.779 0 .89.89 0 011.78 0z"/>
    <path fill="#40649C" d="M46.227 36.893c0 1.442-.148 2.77-.428 3.988a26.063 26.063 0 01-1.435 1.728 25.427 25.427 0 01-3.799 3.424 25.241 25.241 0 01-3.877 2.351 25.429 25.429 0 01-11.203 2.588c-8.292 0-15.66-3.96-20.314-10.094-.28-1.217-.426-2.543-.426-3.985 0-11.455 9.286-25.84 20.74-25.84 11.455 0 20.742 14.385 20.742 25.84z"/>
    <path fill="#FEE175" d="M24.82 40.169c-2.902-.097-5.272-1.597-5.272-3.145 0-.822.726-2.031 1.645-2.031 1.015 0 1.838 1.427 3.627 1.741v-3.918c-2.225-.846-4.837-1.886-4.837-4.983 0-3.071 2.274-4.546 4.837-4.91v-.677c0-.338.388-.652.92-.652.46 0 .919.314.919.652v.605c1.5.049 4.33.436 4.33 2.104 0 .653-.436 1.984-1.5 1.984-.799 0-1.258-.774-2.83-.895v3.531c2.2.822 4.765 1.96 4.765 5.224 0 3-1.935 4.813-4.765 5.273v.701c0 .339-.46.653-.92.653-.531 0-.919-.314-.919-.653v-.604zm.242-11.174v-2.879c-1.088.218-1.548.774-1.548 1.355 0 .701.63 1.136 1.548 1.524zm1.355 4.474v3.241c.822-.194 1.475-.653 1.475-1.524 0-.798-.605-1.306-1.475-1.717z"/>
    <path fill="#40649C" d="M31.799 8.819C32.497 6.887 43.18.104 25.486.104s-7.012 6.783-6.314 8.715"/>
    <path fill="#274B7B" d="M14.704 36.893c0 6.657 1.63 10.86 4.164 13.21a25.51 25.51 0 01-13.696-9.222 17.756 17.756 0 01-.427-3.988c0-11.455 9.286-25.84 20.74-25.84-5.953 0-10.781 14.385-10.781 25.84zM22.204 8.82h-3.03C18.476 6.894 7.866.152 25.295.104 16.364.2 21.843 6.901 22.204 8.82z"/>
    <path fill="#FCBC77" d="M33.878 10.794a2.08 2.08 0 01-2.079 2.078H19.173a2.075 2.075 0 01-2.079-2.078c0-1.149.93-2.079 2.079-2.079h12.626a2.074 2.074 0 012.079 2.079z"/>
    <path fill="#FEE175" d="M33.878 10.794a2.08 2.08 0 01-2.079 2.078h-8.153a2.078 2.078 0 110-4.157h8.153a2.075 2.075 0 012.079 2.079z"/>
    <path fill="#36B990" d="M39.638 17.483A52.071 52.071 0 0050.795 6.326c.35-.477.24-1.148-.244-1.488L44.895.862a1.054 1.054 0 00-1.454.236 43.058 43.058 0 01-9.032 9.031c-.46.34-.564.986-.235 1.455l3.975 5.656c.34.484 1.012.594 1.489.243z"/>
    <path fill="#77D9A5" d="M38.043 15.393l-2.165-3.08a1.655 1.655 0 00.362-2.36 44.138 44.138 0 007.025-7.025 1.654 1.654 0 002.36-.362l3.08 2.165a1.654 1.654 0 00.354 2.27 51.18 51.18 0 01-8.746 8.747 1.655 1.655 0 00-2.27-.355zM38.994 16.746l-.4-.57a.696.696 0 01.96.154c-.186.14-.372.279-.56.416zM35.328 11.53l-.401-.57c.187-.139.373-.278.558-.419a.697.697 0 01-.157.988zM43.852 2.173c.141-.185.28-.37.418-.558l.57.4a.698.698 0 01-.988.157v.001zM49.565 6.175a.697.697 0 01-.077-.893l.57.4a44.42 44.42 0 01-.416.56.718.718 0 01-.077-.067z"/>
    <path fill="#36B990" d="M40.441 11.173c1.257 1.257 3.182 1.37 4.298.254 1.117-1.116 1.003-3.04-.254-4.298-1.258-1.257-3.182-1.37-4.298-.254-1.117 1.116-1.003 3.04.254 4.298z"/>
    <path fill="#77D9A5" d="M43.97 10.91c-.565.53-1.296.694-1.588.402-.155-.155-.246-.52-.073-.694.192-.192.616-.078 1.013-.356l-.739-.739c-.58.26-1.268.557-1.852-.027-.58-.58-.43-1.287-.014-1.839l-.128-.128c-.064-.064-.05-.196.05-.296.087-.087.233-.114.297-.05l.114.114c.292-.274.899-.735 1.214-.42.123.123.291.456.09.657-.15.15-.383.091-.702.365l.667.666c.57-.26 1.268-.53 1.884.087.566.565.543 1.273.096 1.893l.132.133c.064.063.037.21-.05.296-.1.1-.233.114-.297.05l-.114-.114zm-2.062-2.154l-.543-.543c-.164.247-.146.439-.037.548.133.132.333.096.58-.005zm1.1.589l.611.611c.118-.191.155-.401-.01-.565-.15-.15-.36-.133-.602-.046z"/>
    <path fill="#36B990" d="M46.602 5.782a.89.89 0 11-1.779 0 .89.89 0 011.779 0zM39.982 12.401a.89.89 0 11-1.779 0 .89.89 0 011.78 0zM34.005 39.117a43.075 43.075 0 0011.138 2.593 25.94 25.94 0 01-3.095 3.146 25.24 25.24 0 01-5.36 3.528c-.46.226-.927.438-1.403.637a52.322 52.322 0 01-4.63-1.526 1.056 1.056 0 01-.602-1.384l2.603-6.405c.215-.53.814-.793 1.349-.59z"/>
    <path fill="#77D9A5" d="M42.047 44.856a25.24 25.24 0 01-5.36 3.528 51.23 51.23 0 01-4.209-1.262 1.654 1.654 0 00-.93-2.1l1.417-3.488a1.654 1.654 0 002.18-.974 44.084 44.084 0 009.218 2.048 25.413 25.413 0 01-2.316 2.248zM30.926 46.554l.262-.645a.696.696 0 01.39.89c-.218-.08-.436-.161-.652-.245zM33.326 40.646l.261-.645c.218.083.436.163.654.242a.697.697 0 01-.915.403z"/>
    <path fill="#36B990" d="M42.048 44.856a25.253 25.253 0 01-4.602 3.14c-.881-.697-1.33-1.955-1.052-3.244.377-1.738 1.932-2.876 3.476-2.542 1.21.26 2.052 1.351 2.178 2.646z"/>
    <path fill="#77D9A5" d="M39.983 43.165l.034-.158c.019-.087-.083-.196-.203-.222-.138-.03-.257.03-.277.119l-.038.177c-.688-.051-1.365.205-1.537 1.007-.175.807.447 1.225.98 1.572l-.222 1.02c-.448-.182-.582-.6-.848-.657-.24-.053-.496.222-.543.436-.08.364.349.827.986 1.053a25.24 25.24 0 002.25-1.48c-.098-.528-.552-.851-.962-1.114l.2-.921c.403.12.48.349.687.393.278.06.466-.262.503-.432.095-.435-.622-.695-1.01-.793zm-1.081 1.026c.033-.15.184-.27.48-.265l-.162.75c-.218-.151-.358-.301-.318-.485zm.706 2.26c-.049.227-.245.31-.47.314l.183-.846c.204.158.333.324.287.532z"/>
    <path fill="#36B990" d="M35.522 44.284a.89.89 0 11-1.78 0 .89.89 0 011.78 0zM17.55 36.623a52.148 52.148 0 01-8.065 8.702 25.63 25.63 0 01-4.313-4.444v-.003a24.413 24.413 0 01-1.077-1.534c-.18-.275-.354-.553-.522-.836a43.054 43.054 0 006.623-7.114c.34-.46.986-.564 1.454-.235l5.657 3.975c.484.34.594 1.013.243 1.489z"/>
    <path fill="#77D9A5" d="M15.813 37.298a51.017 51.017 0 01-7.087 7.39 25.629 25.629 0 01-3.554-3.807l-.001-.003a24.405 24.405 0 01-1.077-1.534 44.223 44.223 0 005.925-6.119 1.654 1.654 0 002.36-.362l3.08 2.165a1.655 1.655 0 00.354 2.27zM10.607 32.47c.141-.185.28-.37.418-.558l.57.4a.697.697 0 01-.988.157zM16.32 36.472a.697.697 0 01-.077-.893l.57.4c-.137.188-.276.374-.416.56a.727.727 0 01-.077-.067z"/>
    <path fill="#36B990" d="M7.196 41.47c1.257 1.257 3.181 1.371 4.298.254 1.117-1.116 1.003-3.04-.254-4.298-1.258-1.257-3.182-1.37-4.298-.254-1.117 1.117-1.003 3.04.254 4.298z"/>
    <path fill="#77D9A5" d="M11.053 40.842c.448-.62.47-1.328-.095-1.894-.616-.616-1.314-.347-1.884-.086l-.667-.666c.32-.274.553-.215.703-.365.201-.201.031-.534-.091-.658-.315-.314-.922.147-1.214.42l-.113-.114c-.065-.064-.21-.036-.297.05-.101.1-.114.233-.05.296l.127.128c-.415.553-.566 1.26.013 1.84.585.583 1.274.287 1.853.027l.74.74c-.398.277-.822.163-1.013.355-.174.174-.083.538.072.694.293.291 1.023.127 1.588-.402l.114.114c.064.064.197.05.297-.05.086-.087.114-.233.05-.297l-.133-.132zm-2.97-1.784c-.109-.11-.127-.301.037-.548l.543.543c-.247.1-.447.137-.58.005zm2.291 1.196l-.611-.612c.241-.087.451-.105.602.045.164.165.128.375.01.567z"/>
    <path fill="#36B990" d="M13.357 36.078a.89.89 0 11-1.779.001.89.89 0 011.779 0zM6.735 42.747a24.967 24.967 0 01-.82-.935.882.882 0 01.82.935z"/>
  </g>
  <defs>
    <clipPath id="clip0_251_442">
      <path fill="#fff" d="M0 0h51v51H0z"/>
    </clipPath>
  </defs>
</svg>
