<svg xmlns="http://www.w3.org/2000/svg" width="51" height="51" fill="none" viewBox="0 0 51 51">
  <g clip-path="url(#clip0_251_515)">
    <path fill="#1A2B63" d="M25.5 0C15.687 0 9.642 5.535 9.626 5.544c-.379 1.748-1.038 4.285-1.038 6.147 0 14.083 11.877 25.497 25.96 25.497 6.002 0 11.516-2.795 15.872-6.264.018-.109.58-2.348.58-5.424C51 11.417 39.583 0 25.5 0z"/>
    <path fill="#1A2B63" d="M34.546 36.468c-14.083 0-25.5-11.417-25.5-25.5 0-1.862.201-3.676.58-5.424l-.002.001C3.76 10.217 0 17.42 0 25.5c0 7.46 3.203 14.17 8.308 18.834l3.954 2.965A25.381 25.381 0 0025.5 51c4.825 0 9.361-1.347 13.231-3.7l3.96-2.968a25.436 25.436 0 007.729-13.408 25.39 25.39 0 01-15.874 5.544z"/>
    <g>
      <path fill="#F9EF63" d="M42.691 3.702H23.36v43.596h15.37a25.606 25.606 0 003.961-2.966V3.702z"/>
      <path fill="#F4DD45" d="M23.62 3.702H8.309v40.631a25.595 25.595 0 003.953 2.965H23.62V3.703z"/>
      <path fill="#F4DD45" d="M23.411 30.1h12.016v2.5H23.41v-2.5zM23.411 35.385h12.016v2.5H23.41v-2.5z"/>
      <path fill="#ECBE6B" d="M15.573 30.1h8.047v2.5h-8.047v-2.5zM15.573 35.385h8.047v2.5h-8.047v-2.5z"/>
      <path fill="#F4DD45" d="M31.275 10.825H19.339a.968.968 0 00-.968.968v15.349c0 .535.433.968.968.968h11.936a.968.968 0 00.968-.968V11.793a.968.968 0 00-.968-.968z"/>
      <path fill="#F9F6F6" d="M31.275 8.625H19.339a.968.968 0 00-.968.968v15.349c0 .534.433.968.968.968h11.936a.968.968 0 00.968-.968V9.592a.968.968 0 00-.968-.967z"/>
      <path fill="#F9F6F6" d="M31.275 8.625h-7.75V25.91h7.75a.968.968 0 00.968-.968V9.592a.968.968 0 00-.968-.967z"/>
      <path fill="#FFEBB4" d="M23.62 8.625h-4.281a.968.968 0 00-.968.968v15.349c0 .534.433.968.968.968h4.28V8.625z"/>
      <path fill="#DF6B57" d="M26.528 18.162c-.39-.1-.8-.154-1.221-.154h-.019c-.98.004-1.764.818-1.764 1.798v6.104h6.67v-3.016a4.888 4.888 0 00-3.666-4.732z"/>
      <path fill="#DA387D" d="M26.907 18.277a4.886 4.886 0 00-6.486 4.617v3.015h3.2v-3.015a4.887 4.887 0 013.286-4.617z"/>
      <path fill="#FAA073" d="M25.307 19.043c1.642 0 2.973-1.777 2.973-3.97 0-2.191-1.331-3.969-2.973-3.969s-2.973 1.778-2.973 3.97 1.331 3.969 2.973 3.969z"/>
      <path fill="#FF8257" d="M26.907 17.267c-1.642 0-2.972-1.777-2.972-3.969 0-.718.143-1.391.393-1.972-1.16.54-1.994 2.014-1.994 3.747 0 2.193 1.331 3.97 2.973 3.97 1.104 0 2.066-.804 2.58-1.997a2.306 2.306 0 01-.98.221z"/>
    </g>
  </g>
  <defs>
    <clipPath id="clip0_251_515">
      <path fill="#fff" d="M0 0h51v51H0z"/>
    </clipPath>
  </defs>
</svg>
